<svg width="32" height="32" viewBox="0 0 32 32" fill="none" xmlns="http://www.w3.org/2000/svg">
  <rect width="32" height="32" rx="0" fill="#000000"/>
  
  <!-- Grid pattern -->
  <g opacity="0.1">
    <line x1="0" y1="4" x2="32" y2="4" stroke="#00FF41" stroke-width="0.5"/>
    <line x1="0" y1="8" x2="32" y2="8" stroke="#00FF41" stroke-width="0.5"/>
    <line x1="0" y1="12" x2="32" y2="12" stroke="#00FF41" stroke-width="0.5"/>
    <line x1="0" y1="16" x2="32" y2="16" stroke="#00FF41" stroke-width="0.5"/>
    <line x1="0" y1="20" x2="32" y2="20" stroke="#00FF41" stroke-width="0.5"/>
    <line x1="0" y1="24" x2="32" y2="24" stroke="#00FF41" stroke-width="0.5"/>
    <line x1="0" y1="28" x2="32" y2="28" stroke="#00FF41" stroke-width="0.5"/>
    
    <line x1="4" y1="0" x2="4" y2="32" stroke="#00FF41" stroke-width="0.5"/>
    <line x1="8" y1="0" x2="8" y2="32" stroke="#00FF41" stroke-width="0.5"/>
    <line x1="12" y1="0" x2="12" y2="32" stroke="#00FF41" stroke-width="0.5"/>
    <line x1="16" y1="0" x2="16" y2="32" stroke="#00FF41" stroke-width="0.5"/>
    <line x1="20" y1="0" x2="20" y2="32" stroke="#00FF41" stroke-width="0.5"/>
    <line x1="24" y1="0" x2="24" y2="32" stroke="#00FF41" stroke-width="0.5"/>
    <line x1="28" y1="0" x2="28" y2="32" stroke="#00FF41" stroke-width="0.5"/>
  </g>
  
  <!-- Outer frame -->
  <rect x="2" y="2" width="28" height="28" stroke="#00FF41" stroke-width="1" fill="none"/>
  
  <!-- Inner frame -->
  <rect x="4" y="4" width="24" height="24" stroke="#00FFFF" stroke-width="0.5" stroke-dasharray="2 2" fill="none" />
  
  <!-- Wave path -->
  <path d="M6 18C10 10 12 22 16 16C20 10 22 22 26 14" stroke="#00FF41" stroke-width="2"/>
  
  <!-- Glitch effects -->
  <path d="M6 18C10 10 12 22 16 16C20 10 22 22 26 14" stroke="#FF00FF" stroke-width="2" opacity="0.5" transform="translate(1, 1)"/>
  <path d="M6 18C10 10 12 22 16 16C20 10 22 22 26 14" stroke="#00FFFF" stroke-width="2" opacity="0.5" transform="translate(-1, -1)"/>
  
  <!-- Tech decoration -->
  <circle cx="6" cy="6" r="1.5" fill="#FF00FF"/>
  <circle cx="26" cy="6" r="1.5" fill="#00FFFF"/>
  <circle cx="6" cy="26" r="1.5" fill="#00FFFF"/>
  <circle cx="26" cy="26" r="1.5" fill="#FF00FF"/>
  
  <!-- Center icon -->
  <rect x="14" y="14" width="4" height="4" fill="#00FF41"/>
</svg>